<?xml version="1.0" encoding="UTF-8"?>
<svg version="1.1" viewBox="0 0 1000 1000" xmlns="http://www.w3.org/2000/svg">
 <g transform="translate(0 -52.362)">
  <circle cx="500" cy="552.36" r="443.92" fill="#409fe2"/>
  <path d="m506.37 252.17c-169.07 0-306.56 137.49-306.56 306.56s137.49 306.56 306.56 306.56 306.56-137.49 306.56-306.56-137.49-306.56-306.56-306.56zm0 40c13.926 0 27.597 1.065 40.941 3.1133l1.3711 5.625s14.715 60.5 22.756 148.02c-20.9-1.1774-42.71-1.875-65.068-1.875-22.462 0-44.25 0.68257-65.064 1.8281 8.0412-87.498 22.75-147.98 22.75-147.98l1.373-5.625c13.344-2.0483 27.015-3.1133 40.941-3.1133zm-84.348 13.58c-5.0983 24.184-15.169 77.469-21.127 146.01-69.5 6.0412-123.4 16.324-147.09 21.35 26.652-78.882 89.157-141.09 168.22-167.36zm168.7 0c79.08 26.273 141.6 88.505 168.24 167.41-23.779-4.9615-78.169-15.216-147.1-21.297-5.9563-68.591-16.036-121.92-21.137-146.12zm-84.348 181.31c23.474 0 46.314 0.8096 68.109 2.1348 1.2833 21.664 2.0644 44.46 2.0644 68.039 0 23.45-0.80821 46.268-2.1309 68.043-21.775 1.3226-44.593 2.1309-68.043 2.1309-23.579 0-46.373-0.7813-68.037-2.0644-1.3251-21.795-2.1367-44.635-2.1367-68.109 0-23.603 0.78276-46.421 2.0684-68.105 21.684-1.2857 44.502-2.0684 68.105-2.0684zm-108.35 5.1094c-1.1456 20.815-1.8281 42.602-1.8281 65.064 0 22.359 0.6976 44.167 1.875 65.066-87.523-8.0403-148.02-22.752-148.02-22.752l-7.4004-1.8047c-1.8593-12.732-2.8379-25.753-2.8379-39.01 0-14.338 1.1416-28.404 3.3106-42.123l6.9277-1.6894s60.479-14.71 147.98-22.752zm216.7 0.12304c86.556 8.0752 148.08 22.656 148.08 22.656l6.8106 1.6191c2.1733 13.732 3.3164 27.813 3.3164 42.166 0 13.272-0.98013 26.308-2.8438 39.055l-7.2832 1.7324s-61.547 14.584-148.13 22.658c1.1733-20.863 1.8691-42.63 1.8691-64.945 0-22.418-0.67883-44.163-1.8203-64.941zm145.27 148.79c-26.095 80.669-89.514 144.38-170.01 170.86 4.7595-22.496 15.478-78.136 21.754-149.34 69.918-6.1619 124.98-16.636 148.25-21.52zm-507.23 0.0547c23.192 4.95 77.764 15.456 148.24 21.576 6.277 71.154 16.987 126.75 21.744 149.23-80.473-26.479-143.88-90.165-169.99-170.81zm318.55 24.395c-8.0737 86.583-22.658 148.13-22.658 148.13l-2.0488 8.6172c-13.121 1.9784-26.556 3.0098-40.238 3.0098s-27.117-1.0314-40.238-3.0098l-2.0488-8.6172s-14.58-61.526-22.654-148.08c20.778 1.1414 42.523 1.8223 64.941 1.8223 22.315 0 44.083-0.69786 64.945-1.8711z" color="#000000" color-rendering="auto" fill-opacity=".13333" image-rendering="auto" shape-rendering="auto" solid-color="#000000" style="block-progression:tb;isolation:auto;mix-blend-mode:normal;text-decoration-color:#000000;text-decoration-line:none;text-decoration-style:solid;text-indent:0;text-transform:none;white-space:normal"/>
  <path transform="translate(0 52.362)" d="m500 193.44c-169.07 0-306.56 137.49-306.56 306.56s137.49 306.56 306.56 306.56 306.56-137.49 306.56-306.56-137.49-306.56-306.56-306.56zm0 40c13.926 0 27.597 1.065 40.941 3.1133l1.3711 5.625s14.715 60.5 22.756 148.02c-20.9-1.1774-42.71-1.875-65.068-1.875-22.462 0-44.25 0.68257-65.064 1.8281 8.0412-87.498 22.75-147.98 22.75-147.98l1.373-5.625c13.344-2.0483 27.015-3.1133 40.941-3.1133zm-84.348 13.58c-5.0983 24.184-15.169 77.469-21.127 146.01-69.5 6.0412-123.4 16.324-147.09 21.35 26.652-78.882 89.157-141.09 168.22-167.36zm168.7 0c79.08 26.273 141.6 88.505 168.24 167.41-23.779-4.9615-78.169-15.216-147.1-21.297-5.9563-68.591-16.036-121.92-21.137-146.12zm-84.348 181.31c23.474 0 46.314 0.8096 68.109 2.1348 1.2833 21.664 2.0644 44.46 2.0644 68.039 0 23.45-0.80821 46.268-2.1309 68.043-21.775 1.3226-44.593 2.1309-68.043 2.1309-23.579 0-46.373-0.7813-68.037-2.0644-1.3251-21.795-2.1367-44.635-2.1367-68.109 0-23.603 0.78276-46.421 2.0684-68.105 21.684-1.2857 44.502-2.0684 68.105-2.0684zm-108.35 5.1094c-1.1456 20.815-1.8281 42.602-1.8281 65.064 0 22.359 0.6976 44.167 1.875 65.066-87.523-8.0403-148.02-22.752-148.02-22.752l-7.4004-1.8047c-1.8593-12.732-2.8379-25.753-2.8379-39.01 0-14.338 1.1416-28.404 3.3106-42.123l6.9277-1.6894s60.479-14.71 147.98-22.752zm216.7 0.12304c86.556 8.0752 148.08 22.656 148.08 22.656l6.8106 1.6191c2.1733 13.732 3.3164 27.813 3.3164 42.166 0 13.272-0.98013 26.308-2.8438 39.055l-7.2832 1.7324s-61.547 14.584-148.13 22.658c1.1733-20.863 1.8691-42.63 1.8691-64.945 0-22.418-0.67883-44.163-1.8203-64.941zm145.27 148.79c-26.095 80.669-89.514 144.38-170.01 170.86 4.7595-22.496 15.478-78.136 21.754-149.34 69.918-6.1619 124.98-16.636 148.25-21.52zm-507.23 0.05468c23.192 4.95 77.764 15.456 148.24 21.576 6.277 71.154 16.987 126.75 21.744 149.23-80.473-26.479-143.88-90.165-169.99-170.81zm318.55 24.395c-8.0737 86.583-22.658 148.13-22.658 148.13l-2.0488 8.6172c-13.121 1.9784-26.556 3.0098-40.238 3.0098s-27.117-1.0314-40.238-3.0098l-2.0488-8.6172s-14.58-61.526-22.654-148.08c20.778 1.1414 42.523 1.8223 64.941 1.8223 22.315 0 44.083-0.69786 64.945-1.8711z" color="#000000" color-rendering="auto" fill="#e4ff1e" image-rendering="auto" shape-rendering="auto" solid-color="#000000" style="block-progression:tb;isolation:auto;mix-blend-mode:normal;text-decoration-color:#000000;text-decoration-line:none;text-decoration-style:solid;text-indent:0;text-transform:none;white-space:normal"/>
 </g>
</svg>
